<?xml version="1.0" encoding="utf-8"?>
<!-- Generator: Adobe Illustrator 16.0.2, SVG Export Plug-In . SVG Version: 6.00 Build 0)  -->
<!DOCTYPE svg PUBLIC "-//W3C//DTD SVG 1.1//EN" "http://www.w3.org/Graphics/SVG/1.1/DTD/svg11.dtd">
<svg version="1.1" id="Layer_1" xmlns="http://www.w3.org/2000/svg" xmlns:xlink="http://www.w3.org/1999/xlink" x="0px" y="0px"
	 width="138.285px" height="104.88px" viewBox="0 0 138.285 104.88" enable-background="new 0 0 138.285 104.88"
	 xml:space="preserve">
<g>
	<rect x="0.931" y="0.947" fill="#FFFFFF" width="136.406" height="102.986"/>
	<g>
		<polygon points="4.709,4.73 133.589,4.73 133.589,100.155 4.709,100.155 4.709,4.73 		"/>
		<g>
			<g>
				<path fill="#FFFFFF" d="M37.247,28.407l-7.321,12.316l3.948-1.277l-7.202,13.014l4.299-2.322l-7.553,13.828l5.229-2.441
					l-8.859,14.873l42.296-0.059v-5.285h1.072l5.58,5.344h11.097l-8.076-8.135l4.533-4.533l-0.031-12.896H63.739l-1.395,1.045
					v-3.484L75.242,35.61l12.316,12.203h2.672l11.023-10.91l11.084,10.996l1.828,0.027l-14.957-14.93l-11.68,11.736l-16.063-16.15
					L47.645,52.374l-7.264-13.16l3.836,1.744L37.247,28.407L37.247,28.407z M47.237,52.795l-1.553,1.553l-2.861-4.098L47.237,52.795
					L47.237,52.795z M53.166,57.34v16.701l-6.159-10.658L53.166,57.34L53.166,57.34z M66.993,56.061v6.742h-4.881v-2.092
					L66.993,56.061L66.993,56.061z"/>
				<polygon fill="#FFFFFF" points="100.804,50.833 100.804,56.76 90.697,56.76 90.697,60.129 100.921,60.129 100.921,66.403 
					90.667,66.403 90.667,69.657 100.921,69.657 100.921,76.483 81.429,76.471 81.429,50.833 100.804,50.833 				"/>
				<polygon fill="#FFFFFF" points="105.919,50.833 114.515,50.833 114.515,76.454 105.919,76.454 105.919,50.833 				"/>
			</g>
			<path fill="#FFFFFF" d="M116.451,53.071c0,1.201,0.959,2.1,2.104,2.1c1.139,0,2.09-0.898,2.09-2.1
				c0-1.176-0.951-2.074-2.09-2.074C117.41,50.997,116.451,51.895,116.451,53.071L116.451,53.071z M116.83,53.071
				c0-0.998,0.746-1.768,1.725-1.768c0.967,0,1.713,0.77,1.713,1.768c0,1.023-0.746,1.793-1.713,1.793
				C117.576,54.864,116.83,54.094,116.83,53.071L116.83,53.071z M117.738,51.86h0.943c0.582,0,0.854,0.229,0.854,0.699
				c0,0.441-0.279,0.625-0.641,0.664l0.699,1.076h-0.41l-0.664-1.049h-0.402v1.049h-0.379V51.86L117.738,51.86z M118.117,52.944
				h0.398c0.332,0,0.641-0.018,0.641-0.402c0-0.324-0.279-0.373-0.535-0.373h-0.504V52.944L118.117,52.944z"/>
		</g>
	</g>
	<g>
		<path d="M137.337,0.947v102.986H0.947V0.947H137.337 M138.285,0h-0.947H0.947H0v0.946v102.986v0.947h0.947h136.391h0.947v-0.947
			V0.947V0L138.285,0z"/>
	</g>
</g>
</svg>
